<?xml version="1.0" encoding="UTF-8" standalone="no"?>
<!-- Created with Inkscape (http://www.inkscape.org/) -->

<svg
   xmlns:serif="http://www.serif.com/"
   xmlns:dc="http://purl.org/dc/elements/1.1/"
   xmlns:cc="http://creativecommons.org/ns#"
   xmlns:rdf="http://www.w3.org/1999/02/22-rdf-syntax-ns#"
   xmlns:svg="http://www.w3.org/2000/svg"
   xmlns="http://www.w3.org/2000/svg"
   xmlns:sodipodi="http://sodipodi.sourceforge.net/DTD/sodipodi-0.dtd"
   xmlns:inkscape="http://www.inkscape.org/namespaces/inkscape"
   width="210mm"
   height="297mm"
   viewBox="0 0 210 297"
   version="1.1"
   id="svg8"
   sodipodi:docname="crane-ferris.svg"
   inkscape:export-xdpi="96"
   inkscape:export-ydpi="96">
  <defs
     id="defs2" />
  <sodipodi:namedview
     id="base"
     pagecolor="#ffffff"
     bordercolor="#666666"
     borderopacity="1.0"
     inkscape:pageopacity="0.0"
     inkscape:pageshadow="2"
     inkscape:zoom="0.49497475"
     inkscape:cx="494.19077"
     inkscape:cy="854.28447"
     inkscape:document-units="mm"
     inkscape:current-layer="layer1"
     showgrid="false"
     inkscape:snap-nodes="true"
     inkscape:object-paths="false"
     inkscape:measure-start="0,0"
     inkscape:measure-end="0,0"
     inkscape:snap-others="false"
     inkscape:object-nodes="false"
     inkscape:window-width="3200"
     inkscape:window-height="1662"
     inkscape:window-x="0"
     inkscape:window-y="66"
     inkscape:window-maximized="1" />
  <metadata
     id="metadata5">
    <rdf:RDF>
      <cc:Work
         rdf:about="">
        <dc:format>image/svg+xml</dc:format>
        <dc:type
           rdf:resource="http://purl.org/dc/dcmitype/StillImage" />
        <dc:title></dc:title>
      </cc:Work>
    </rdf:RDF>
  </metadata>
  <g
     inkscape:groupmode="layer"
     id="layer2"
     inkscape:label="Rear Ropes">
    <ellipse
       style="fill:#c8c4b7;stroke-width:1.66499996;stroke-miterlimit:4;stroke-dasharray:none;stroke-dashoffset:0"
       id="path4883-3"
       cx="148.06732"
       cy="163.63249"
       rx="49.845768"
       ry="7.6171813" />
    <ellipse
       style="fill:#ac9393;stroke-width:1.66499996;stroke-miterlimit:4;stroke-dasharray:none;stroke-dashoffset:0"
       id="path4883"
       cx="147.66643"
       cy="160.82616"
       rx="49.845764"
       ry="7.6171813" />
    <path
       style="opacity:0.15199998;fill:none;stroke:#000000;stroke-width:0.52957731;stroke-linecap:butt;stroke-linejoin:miter;stroke-miterlimit:4;stroke-dasharray:none;stroke-dashoffset:4.51999998;stroke-opacity:1"
       d="m 116.49049,155.18484 30.46004,-82.073079 30.8303,81.805159"
       id="path4941-3-5"
       inkscape:connector-curvature="0"
       sodipodi:nodetypes="ccc" />
  </g>
  <g
     inkscape:groupmode="layer"
     id="layer3"
     inkscape:label="Ferris">
    <g
       style="clip-rule:evenodd;fill-rule:evenodd;stroke-linejoin:round;stroke-miterlimit:1.41420996"
       id="Layer-1"
       serif:id="Layer 1"
       transform="matrix(0.10279767,0,0,0.10279767,84.164482,92.305071)">
      <g
         transform="translate(1009.4,506.362)"
         id="g4769">
        <path
           d="m 0,-7.203 -12.072,-25.006 c 0.063,-0.947 0.111,-1.898 0.111,-2.853 0,-28.346 -29.478,-54.471 -79.069,-75.389 v 17.393 c -4.836,-1.919 -9.871,-3.787 -15.117,-5.593 v -8.108 c -70.874,-25.56 -176.383,-41.778 -294.241,-41.778 -102.973,0 -196.529,12.38 -265.791,32.554 v 28.246 h -0.002 v -34.188 c -70.96,22.55 -114.954,53.877 -114.954,88.515 0,5.46 1.101,10.838 3.217,16.113 l -7.228,12.867 c 0,0 -5.792,7.512 4.406,23.362 8.994,13.977 54.048,68.685 77.827,97.335 10.214,14.687 17.141,23.734 17.746,22.859 0.955,-1.386 -6.351,-28.961 -26.635,-60.423 -9.466,-16.895 -20.768,-39.283 -27.554,-55.819 18.942,11.99 130.23,68.029 357.232,67.801 231.994,-0.232 335.115,-72.851 346.433,-82.737 -3.955,15.889 -17.468,48.033 -28.245,70.638 -17.706,32.331 -24.12,60.478 -23.296,61.87 0.524,0.878 6.565,-8.441 15.476,-23.543 C -51.025,87.37 -11.739,30.974 -3.889,16.608 5.007,0.323 0,-7.203 0,-7.203"
           style="fill:#a52b00;fill-rule:nonzero"
           id="path4767"
           inkscape:connector-curvature="0" />
      </g>
      <g
         transform="translate(1079.49,294.885)"
         id="g4773">
        <path
           d="m 0,204.135 -79.343,-58.446 c -0.745,-2.6 -1.49,-5.201 -2.26,-7.781 l 26.062,-37.754 c 2.66,-3.84 3.196,-8.832 1.469,-13.211 -1.731,-4.358 -5.515,-7.482 -9.99,-8.247 l -44.066,-7.479 c -1.709,-3.485 -3.498,-6.916 -5.294,-10.319 L -94.907,18.51 c 1.903,-4.317 1.505,-9.335 -1.022,-13.254 -2.517,-3.937 -6.786,-6.237 -11.338,-6.058 l -44.724,1.625 c -2.315,-3.016 -4.667,-6.003 -7.067,-8.937 l 10.278,-45.432 c 1.042,-4.612 -0.274,-9.443 -3.487,-12.794 -3.195,-3.339 -7.838,-4.722 -12.253,-3.639 l -43.562,10.709 c -2.82,-2.493 -5.688,-4.953 -8.588,-7.365 l 1.567,-46.641 c 0.168,-4.721 -2.033,-9.208 -5.812,-11.829 -3.777,-2.636 -8.57,-3.032 -12.701,-1.074 l -40.638,19.321 c -3.273,-1.878 -6.565,-3.737 -9.892,-5.537 l -7.181,-45.961 c -0.729,-4.656 -3.724,-8.612 -7.919,-10.418 -4.185,-1.817 -8.976,-1.228 -12.648,1.536 l -36.232,27.185 c -3.569,-1.185 -7.153,-2.32 -10.779,-3.407 l -15.617,-43.585 c -1.588,-4.443 -5.25,-7.706 -9.716,-8.624 -4.45,-0.909 -9.028,0.632 -12.114,4.08 l -30.499,34.119 c -3.685,-0.423 -7.377,-0.81 -11.076,-1.131 l -23.549,-39.676 c -2.384,-4.018 -6.597,-6.464 -11.139,-6.464 -4.529,0 -8.75,2.446 -11.118,6.464 l -23.555,39.676 c -3.701,0.321 -7.408,0.708 -11.088,1.131 l -30.499,-34.119 c -3.09,-3.448 -7.684,-4.989 -12.122,-4.08 -4.46,0.93 -8.128,4.181 -9.707,8.624 l -15.629,43.585 c -3.621,1.087 -7.205,2.23 -10.78,3.407 l -36.22,-27.185 c -3.683,-2.774 -8.478,-3.361 -12.668,-1.536 -4.181,1.806 -7.188,5.762 -7.913,10.418 l -7.186,45.961 c -3.322,1.8 -6.614,3.649 -9.895,5.537 l -40.634,-19.321 c -4.127,-1.966 -8.945,-1.562 -12.704,1.074 -3.773,2.621 -5.98,7.108 -5.81,11.829 l 1.562,46.641 c -2.894,2.412 -5.756,4.872 -8.591,7.365 l -43.554,-10.709 c -4.423,-1.074 -9.062,0.3 -12.265,3.639 -3.221,3.351 -4.526,8.182 -3.491,12.794 l 10.257,45.432 c -2.378,2.945 -4.733,5.921 -7.042,8.937 l -44.724,-1.625 c -4.513,-0.135 -8.821,2.121 -11.343,6.058 -2.527,3.919 -2.91,8.937 -1.029,13.254 l 18.528,42.388 c -1.799,3.403 -3.586,6.834 -5.309,10.319 l -44.063,7.479 c -4.479,0.754 -8.252,3.876 -9.994,8.247 -1.728,4.379 -1.167,9.371 1.474,13.211 l 26.066,37.754 c -0.201,0.667 -0.387,1.339 -0.587,2.008 l -73.696,78.285 c 0,0 -11.296,8.851 5.147,29.654 14.5,18.351 88.951,91.096 128.271,129.205 16.606,19.348 27.984,31.329 29.172,30.293 1.876,-1.645 -7.972,-36.847 -40.682,-78.149 -25.216,-37.056 -57.941,-94.049 -50.267,-100.618 0,0 8.729,-11.081 26.242,-19.057 0.641,0.512 -0.662,-0.507 0,0 0,0 369.595,170.491 712.429,2.884 39.164,-7.025 62.873,13.955 62.873,13.955 8.176,4.74 -12.996,63.344 -30.407,102.137 -23.679,44.05 -27.151,78.422 -25.144,79.614 1.268,0.757 9.883,-12.353 22.172,-33.217 C -67.814,332.649 -10.492,252.1 0,232.534 11.895,210.352 0,204.135 0,204.135"
           style="fill:#f74c00;fill-rule:nonzero"
           id="path4771"
           inkscape:connector-curvature="0" />
      </g>
      <g
         transform="translate(917.896,244.679)"
         id="g4777">
        <path
           d="m 0,232.466 c 0,0 53.179,-2.466 123.032,-73.462 l 9.898,-21.979 c 0,0 -108.417,-107.848 60.118,-182.291 0,0 -14.755,24.112 -10.426,117.272 0,0 50.815,-17.649 65.714,-99.94 0,0 74.12,97.724 -80.502,189.377 0,0 -72.54,116.289 -174.805,105.15 z"
           style="fill:#f74c00;fill-rule:nonzero"
           id="path4775"
           inkscape:connector-curvature="0" />
      </g>
      <g
         transform="translate(676.997,488.361)"
         id="g4781">
        <path
           d="m 0,-78.192 c 0,0 36.935,-40.443 73.871,0 0,0 29.022,53.927 0,80.887 0,0 -47.487,37.748 -73.871,0 0,0 -31.658,-29.659 0,-80.887"
           style="fill-rule:nonzero"
           id="path4779"
           inkscape:connector-curvature="0" />
      </g>
      <g
         transform="translate(719.761,425.169)"
         id="g4785">
        <path
           d="m 0,0.004 c 0,15.746 -9.282,28.514 -20.732,28.514 -11.448,0 -20.73,-12.768 -20.73,-28.514 0,-15.75 9.282,-28.518 20.73,-28.518 C -9.282,-28.514 0,-15.746 0,0.004"
           style="fill:#ffffff;fill-rule:nonzero"
           id="path4783"
           inkscape:connector-curvature="0" />
      </g>
      <g
         transform="translate(512.148,482.736)"
         id="g4789">
        <path
           d="m 0,-83.609 c 0,0 63.355,-28.052 80.648,34.562 0,0 18.114,72.98 -52.03,77.099 0,0 -89.444,-17.228 -28.618,-111.661"
           style="fill-rule:nonzero"
           id="path4787"
           inkscape:connector-curvature="0" />
      </g>
      <g
         transform="translate(543.968,426.204)"
         id="g4793">
        <path
           d="m 0,0.002 c 0,16.239 -9.572,29.409 -21.381,29.409 -11.804,0 -21.379,-13.17 -21.379,-29.409 0,-16.244 9.575,-29.411 21.379,-29.411 C -9.572,-29.409 0,-16.242 0,0.002"
           style="fill:#ffffff;fill-rule:nonzero"
           id="path4791"
           inkscape:connector-curvature="0" />
      </g>
      <g
         transform="translate(593.317,576.574)"
         id="g4797">
        <path
           d="m 0,-40.271 80.796,-6.484 c 0,0 -2.738,13.006 -13.279,22.769 0,0 -27.79,30.47 -59.673,-2.533 0,0 -5.217,-5.629 -7.844,-13.752"
           style="fill-rule:nonzero"
           id="path4795"
           inkscape:connector-curvature="0" />
      </g>
      <g
         transform="translate(269.796,270.778)"
         id="g4801">
        <path
           d="m 0,190.741 c -0.667,0 -1.321,0.049 -1.973,0.101 -26.234,-5.971 -99.973,-25.185 -119.464,-56.363 0,0 99.227,-112.872 -55.86,-185.019 l 18.057,124.878 c 0,0 -47.809,-31.949 -58.126,-101.346 0,0 -116.423,84.494 51.384,165.474 0,0 15.22,57.187 161.349,102.815 l 0.107,-0.435 c 1.471,0.272 2.977,0.435 4.526,0.435 13.808,0 25.003,-11.312 25.003,-25.271 0,-13.956 -11.195,-25.269 -25.003,-25.269"
           style="fill:#f74c00;fill-rule:nonzero"
           id="path4799"
           inkscape:connector-curvature="0" />
      </g>
    </g>
  </g>
  <g
     inkscape:label="Front Ropes"
     inkscape:groupmode="layer"
     id="layer1">
    <path
       style="fill:none;stroke:#000000;stroke-width:0;stroke-linecap:butt;stroke-linejoin:miter;stroke-miterlimit:4;stroke-dasharray:none;stroke-dashoffset:0;stroke-opacity:1"
       d="m 198.04672,48.973877 -87.12987,-17.105249 -2.67269,-3.207234 c -3.74177,-2.626653 -7.48355,-4.765471 -11.225324,-6.681738 -4.762587,-2.793962 -9.955199,-5.30124 -16.83798,-6.681738 -5.34539,-1.706081 -11.759858,-2.187416 -17.105248,-1.069078 -7.625938,0.837469 -10.82009,2.583564 -14.367703,4.100754 -2.552168,1.131955 -6.681838,4.778548 -8.22607,7.926374 -3.921236,4.454492 -4.378436,8.908983 -6.271335,13.363475 -1.546991,10.779871 -3.296278,21.559742 -3.474505,32.339613 l 0.394189,21.648833 1.743967,17.639791 5.87993,32.87415 4.81085,17.90706 c 3.270287,12.2944 6.561269,24.58879 9.621705,36.88319 l 9.907967,34.31891 c 8.314991,21.85098 7.001776,44.95343 -5.71685,64.5708"
       id="path21"
       inkscape:connector-curvature="0"
       sodipodi:nodetypes="ccccccccccccccccc" />
    <path
       style="fill:none;stroke:#000000;stroke-width:0;stroke-linecap:butt;stroke-linejoin:miter;stroke-miterlimit:4;stroke-dasharray:none;stroke-opacity:1"
       d="m 198.04672,48.973877 c -7.36249,2.360967 -15.5283,4.253336 -27.12786,4.142677 l -39.28862,0.400906 -16.43708,1.069078 -13.36347,2.405426 -17.372521,3.174808 c -3.474503,0.845051 -7.988441,1.95536 -11.462944,5.267109 -3.647258,2.939965 -5.830403,5.879931 -6.981435,8.819896 -1.885387,3.296324 -3.100576,7.443093 -3.002033,10.739417 -0.846431,5.167212 -0.0965,9.861954 0.06485,15.029166 0.628354,7.3381 1.540561,13.96657 2.672696,20.04521 l 6.949006,21.64883 7.483546,26.19242 8.018087,31.00326 c 5.404632,19.12379 9.342611,33.03837 14.413558,47.63652 4.16638,18.3772 4.56906,21.49457 4.34117,26.68897 0.45101,6.84601 1.40776,9.21485 -1.11494,23.49515"
       id="path23"
       inkscape:connector-curvature="0"
       sodipodi:nodetypes="ccccccccccccccccc" />
    <path
       style="opacity:0.15199998;fill:none;stroke:#000000;stroke-width:0.565;stroke-linecap:butt;stroke-linejoin:miter;stroke-miterlimit:4;stroke-dasharray:none;stroke-dashoffset:0;stroke-opacity:1"
       d="m 146.99284,72.488114 0.54534,-14.688861"
       id="path4943"
       inkscape:connector-curvature="0" />
    <path
       style="opacity:0.15199998;fill:none;stroke:#000000;stroke-width:0.565;stroke-linecap:butt;stroke-linejoin:miter;stroke-miterlimit:4;stroke-dasharray:none;stroke-dashoffset:0;stroke-opacity:1"
       d="m 147.53278,57.793773 1.86231,-1.942584 0.56696,-2.362351 c 0,0 0,-2.456844 0.18899,-3.212798 0.18899,-0.755952 0.37798,-4.630209 0.37798,-4.630209 V 42.33854 39.598213 c 0,0 -0.28349,-1.039434 -0.66146,-1.322916 -0.37798,-0.283483 -1.23318,-0.9058 -1.23318,-0.9058 l -1.31816,-0.133635 -1.42887,0.467722 -0.95641,1.279028"
       id="path5027"
       inkscape:connector-curvature="0"
       sodipodi:nodetypes="cccscccccccc" />
    <path
       style="opacity:0.15199998;fill:none;stroke:#000000;stroke-width:0.565;stroke-linecap:butt;stroke-linejoin:miter;stroke-miterlimit:4;stroke-dasharray:none;stroke-dashoffset:0;stroke-opacity:1"
       d="m 144.53003,52.562892 c 0.16822,1.060039 0.16228,1.945928 1.17979,3.855262 l 1.82296,1.375619 v 0"
       id="path5029"
       inkscape:connector-curvature="0"
       sodipodi:nodetypes="cccc" />
    <ellipse
       style="fill:#000000;stroke-width:0.56499994;stroke-miterlimit:4;stroke-dasharray:2.25999997, 2.25999997;stroke-dashoffset:0"
       id="path5035"
       cx="84.559471"
       cy="34.533165"
       rx="5.1808758"
       ry="6.0104833" />
    <ellipse
       style="fill:#ffffff;stroke-width:0.52043736;stroke-miterlimit:4;stroke-dasharray:2.08174965, 2.08174965;stroke-dashoffset:0"
       id="path5039"
       cx="83.015068"
       cy="31.794855"
       rx="2.2449291"
       ry="2.8348215" />
    <path
       style="fill:none;stroke:#000000;stroke-width:0.229;stroke-linecap:butt;stroke-linejoin:miter;stroke-miterlimit:4;stroke-dasharray:none;stroke-opacity:1"
       d="M 188.77841,48.979539 C 103.43273,51.426533 105.3744,45.611041 105.06493,45.445192"
       id="path5041"
       inkscape:connector-curvature="0"
       sodipodi:nodetypes="cc" />
    <path
       style="opacity:0.15199998;fill:none;stroke:#000000;stroke-width:0.565;stroke-linecap:butt;stroke-linejoin:miter;stroke-miterlimit:4;stroke-dasharray:none;stroke-dashoffset:4.51999998;stroke-opacity:1"
       d="m 117.51875,166.54419 29.37959,-93.489111 31.86185,93.183931"
       id="path4941-3"
       inkscape:connector-curvature="0"
       sodipodi:nodetypes="ccc" />
    <path
       style="fill:#ffe680;stroke-width:0.71428573"
       d="m 389.88787,204.39456 c -3.20556,-2.82505 -7.16047,-6.74361 -8.78867,-8.7079 -6.13729,-7.40412 -10.02588,-18.85234 -10.02588,-29.51677 0,-4.21242 0.36624,-5.66621 2.50382,-9.93899 4.70821,-9.41115 17.14984,-19.45233 34.82069,-28.10247 l 9.11023,-4.45959 73.74691,14.43769 c 40.5608,7.94073 74.33237,14.61118 75.04793,14.82323 1.21423,0.35984 1.28569,1.37786 1.07142,15.26315 -0.12627,8.18268 -0.45852,15.10589 -0.73833,15.38491 -0.57897,0.57732 -64.11489,-0.81325 -84.1341,-1.84139 -47.62699,-2.44602 -75.94938,-6.3818 -82.3919,-11.44949 l -1.87467,-1.47461 -1.19871,2.51372 c -0.65929,1.38254 -1.46717,2.3478 -1.79529,2.14501 -1.56056,-0.96448 -0.34395,1.22975 1.57898,2.84779 9.07629,7.63719 58.90215,12.60673 139.37215,13.90072 15.97624,0.2569 29.27389,0.69332 29.55034,0.96981 0.27644,0.2765 0.2911,1.91331 0.0326,3.63736 l -0.47007,3.13463 -35.50884,0.50835 c -27.1865,0.3892 -42.70747,0.99229 -66.22313,2.57317 -28.59709,1.92249 -31.92059,2.2881 -48.21428,5.30396 -9.625,1.78153 -17.98214,3.22677 -18.57143,3.21166 -0.58929,-0.0152 -3.69416,-2.33889 -6.89973,-5.16395 z"
       id="path50"
       inkscape:connector-curvature="0"
       transform="scale(0.26458333)" />
    <path
       style="fill:#ffe680;stroke-width:0.71428573"
       d="m 570.12973,169.1963 c 0.23424,-8.21602 0.51441,-15.04418 0.62261,-15.1737 0.1082,-0.12952 32.71838,6.13834 72.46707,13.92857 l 72.27035,14.16407 -12.02965,0.44411 c -6.61631,0.24427 -39.41814,0.6986 -72.89295,1.00964 l -60.86331,0.56551 z"
       id="path52"
       inkscape:connector-curvature="0"
       transform="scale(0.26458333)" />
    <path
       style="fill:#ffe680;stroke-width:0.71428573"
       d="m 568.21617,194.73265 v -3.46035 l 46.60715,-0.4759 c 25.63393,-0.26175 59.30357,-0.62592 74.82143,-0.80928 30.86757,-0.36471 31.62707,-0.16167 11.78571,3.15069 -21.03097,3.51095 -30.92391,3.98251 -98.39286,4.69003 l -34.82143,0.36516 z"
       id="path54"
       inkscape:connector-curvature="0"
       transform="scale(0.26458333)" />
    <path
       style="fill:none;stroke:#000000;stroke-width:0.26458332px;stroke-linecap:butt;stroke-linejoin:miter;stroke-opacity:1"
       d="M 106.106,296.46546 H 58.264755"
       id="path64"
       inkscape:connector-curvature="0" />
    <path
       style="fill:#eeeeec;stroke-width:1.01015258"
       d="m 232.60298,1105.2505 c 22.05506,-42.6666 31.30053,-86.3505 28.63035,-135.27557 -1.44889,-26.54727 -5.94709,-49.35944 -15.47853,-78.49747 -8.18558,-25.0237 -39.70586,-134.90464 -47.99345,-167.30706 -8.25231,-32.26446 -25.16876,-96.32028 -38.53827,-145.92892 -8.38067,-31.09718 -9.99336,-38.73576 -20.15388,-95.45941 -9.88633,-55.19301 -11.40859,-65.31127 -14.51924,-96.50769 -3.15582,-31.64953 -3.53624,-38.97875 -4.14205,-79.80205 -0.81536,-54.94494 -0.0661,-66.53675 8.19446,-126.77415 3.39484,-24.75578 3.92349,-27.19208 9.20613,-42.4264 6.7158,-19.36734 7.62888,-21.2334 17.08268,-34.91197 7.37293,-10.667793 17.01965,-21.045721 23.92384,-25.737237 8.51429,-5.785608 30.87979,-14.400526 43.17299,-16.629709 36.37912,-6.596793 48.91247,-6.434922 79.39248,1.025373 26.72182,6.540439 40.14635,12.019045 69.74922,28.464965 27.8096,15.449658 34.80434,20.312498 41.64968,28.955448 l 3.13982,3.96433 -7.48963,3.55681 c -17.54197,8.33064 -32.62464,20.65853 -36.95897,30.2086 -3.7503,8.26321 -2.0535,23.67437 3.78833,34.40775 1.48725,2.73257 6.20048,8.25744 10.47384,12.27752 l 7.76976,7.30923 -37.52866,6.8242 c -48.42036,8.80476 -60.05072,12.03685 -72.90712,20.26098 -8.13212,5.20206 -21.14365,17.18597 -26.69579,24.58741 -5.88539,7.84571 -15.09873,26.15241 -18.20519,36.17331 -6.79578,21.92198 -6.25287,66.06853 1.51403,123.11585 3.82486,28.09328 4.67743,31.51314 19.13922,76.77159 17.78598,55.66156 36.27398,120.63887 56.62155,199.00006 22.09576,85.09372 44.23813,162.09132 61.72951,214.65741 5.12599,15.40494 9.15563,30.05193 12.50596,45.45687 8.6491,39.76877 10.09994,49.14923 11.40534,73.74113 2.0477,38.5757 1.37326,54.8408 -3.41382,82.3303 l -1.14293,6.5631 H 310.84338 225.16212 Z M 324.2812,152.8684 c 2.09863,-0.58279 5.46561,-2.50827 7.48218,-4.27885 5.1074,-4.48436 7.34092,-9.92218 7.36778,-17.93797 0.0414,-12.34325 -7.14611,-21.74513 -17.51722,-22.9141 -6.26762,-0.70645 -10.95444,1.16572 -15.63783,6.24659 -6.67898,7.24584 -8.18911,18.05739 -3.81716,27.32832 2.85318,6.05028 6.16017,9.28795 11.39227,11.15344 4.76765,1.69991 5.90469,1.74257 10.72998,0.40257 z"
       id="path66"
       inkscape:connector-curvature="0"
       transform="scale(0.26458333)" />
  </g>
</svg>
